<?xml version="1.0" encoding="UTF-8"?>
<svg id="_레이어_1" data-name="레이어 1" xmlns="http://www.w3.org/2000/svg" xmlns:xlink="http://www.w3.org/1999/xlink" version="1.1" viewBox="0 0 545.91 84.4">
  <defs>
    <style>
      .cls-1 {
        fill: url(#_무제_그라디언트_122);
      }

      .cls-1, .cls-2, .cls-3 {
        stroke-width: 0px;
      }

      .cls-2 {
        fill: url(#_무제_그라디언트_112);
      }

      .cls-3 {
        fill: #040000;
      }
    </style>
    <linearGradient id="_무제_그라디언트_112" data-name="무제 그라디언트 112" x1="118.84" y1="61.39" x2="150.09" y2="92.63" gradientUnits="userSpaceOnUse">
      <stop offset="0" stop-color="#04f3ff"/>
      <stop offset=".53" stop-color="#dcf830"/>
      <stop offset="1" stop-color="#ffbd19"/>
    </linearGradient>
    <linearGradient id="_무제_그라디언트_122" data-name="무제 그라디언트 122" x1="333.26" y1="61.39" x2="364.51" y2="92.63" gradientUnits="userSpaceOnUse">
      <stop offset="0" stop-color="#ddf730"/>
      <stop offset=".5" stop-color="#ffbd19"/>
      <stop offset="1" stop-color="#ff20e0"/>
    </linearGradient>
  </defs>
  <path class="cls-3" d="M72.07,74.91h-15.84l-6.65-18.58h-26.89l-6.85,18.58H0L27.38.78h17.99l26.7,74.13ZM44.98,43.62l-8.61-24.35-9,24.35h17.6Z"/>
  <path class="cls-3" d="M97.89.78v74.13h-14.86V.78h14.86Z"/>
  <path class="cls-2" d="M158.33,69.63v14.77h-47.72v-14.77h47.72Z"/>
  <path class="cls-3" d="M205.32,13.5h-19.36v61.42h-14.86V13.5h-19.75V.78h53.98v12.71Z"/>
  <path class="cls-3" d="M277.2,37.85c0,22.2-15.55,37.85-37.55,37.85s-37.55-15.65-37.55-37.85S217.64,0,239.65,0s37.55,15.65,37.55,37.85ZM262.34,37.85c0-15.35-8.7-24.94-22.69-24.94s-22.69,9.58-22.69,24.94,8.7,24.94,22.69,24.94,22.69-9.58,22.69-24.94Z"/>
  <path class="cls-3" d="M340.28,25.72c0,14.67-10.66,24.94-25.82,24.94h-14.86v24.25h-14.87V.78h29.73c15.16,0,25.82,10.27,25.82,24.94ZM325.42,25.72c0-7.14-4.69-12.22-11.44-12.22h-14.38v24.45h14.38c6.75,0,11.44-5.08,11.44-12.22Z"/>
  <path class="cls-1" d="M372.75,69.63v14.77h-47.72v-14.77h47.72Z"/>
  <path class="cls-3" d="M400.39,73.83l-14.86-.2V17.31l-16.14,7.53-5.28-12.91,21.51-10.07h14.77v71.98Z"/>
  <path class="cls-3" d="M409.88,37.75c0-22.49,12.71-36.67,32.96-36.67s32.86,14.18,32.86,36.67-12.71,36.67-32.86,36.67-32.96-14.18-32.96-36.67ZM460.83,37.75c0-14.57-6.94-23.76-17.99-23.76s-18.09,9.19-18.09,23.76,6.94,23.76,18.09,23.76,17.99-9.19,17.99-23.76Z"/>
  <path class="cls-3" d="M480.09,37.75c0-22.49,12.71-36.67,32.96-36.67s32.86,14.18,32.86,36.67-12.71,36.67-32.86,36.67-32.96-14.18-32.96-36.67ZM531.04,37.75c0-14.57-6.94-23.76-17.99-23.76s-18.09,9.19-18.09,23.76,6.94,23.76,18.09,23.76,17.99-9.19,17.99-23.76Z"/>
</svg>